<?xml version="1.0" standalone="no"?>
<!DOCTYPE svg PUBLIC "-//W3C//DTD SVG 20010904//EN"
 "http://www.w3.org/TR/2001/REC-SVG-20010904/DTD/svg10.dtd">
<svg version="1.0" xmlns="http://www.w3.org/2000/svg"
 width="225.000000pt" height="225.000000pt" viewBox="0 0 225.000000 225.000000"
 preserveAspectRatio="xMidYMid meet">

<g transform="translate(0.000000,225.000000) scale(0.100000,-0.100000)"
fill="#1b526b" stroke="none">
<path d="M915 2125 c-244 -53 -449 -184 -596 -378 -259 -343 -274 -809 -36
-1170 136 -208 347 -358 596 -424 132 -35 352 -38 481 -6 324 81 584 303 707
603 35 85 63 201 63 257 -1 36 -2 34 -29 -35 -83 -209 -234 -374 -436 -475
-530 -265 -1170 68 -1266 657 -16 103 -7 280 21 376 24 84 84 211 130 274 90
123 238 241 379 302 82 36 79 40 -14 19z"/>
<path d="M1478 2018 c73 -37 154 -103 211 -173 51 -61 116 -189 136 -270 19
-76 19 -241 0 -325 -37 -158 -155 -324 -290 -409 -211 -134 -446 -146 -675
-34 -78 38 -109 60 -176 127 -92 92 -127 148 -165 261 l-28 80 6 -55 c19 -195
97 -363 228 -494 93 -94 221 -167 355 -203 101 -28 302 -25 400 6 219 68 395
219 491 424 115 246 85 566 -71 773 -113 150 -260 261 -401 304 -89 27 -92 25
-21 -12z"/>
<path d="M756 1829 c-60 -66 -111 -152 -137 -231 -20 -61 -24 -92 -23 -188 0
-98 4 -125 26 -182 91 -242 305 -398 544 -398 83 0 89 5 123 106 29 89 36 165
18 205 -8 19 -22 57 -31 84 -38 118 -205 280 -386 375 l-25 13 25 -28 c14 -15
41 -38 61 -50 55 -35 147 -163 170 -235 30 -98 23 -207 -15 -232 -45 -30 -197
43 -285 137 -162 174 -184 415 -55 607 19 28 33 53 31 55 -2 2 -21 -15 -41
-38z"/>
<path d="M1585 1819 c20 -31 45 -80 56 -110 27 -69 36 -198 19 -270 -29 -125
-119 -255 -218 -314 l-49 -30 -6 -70 c-3 -38 -14 -94 -25 -122 -11 -29 -16
-53 -12 -53 22 0 110 45 167 86 111 79 194 203 229 344 22 87 15 241 -16 327
-25 72 -79 159 -139 223 l-42 45 36 -56z"/>
<path d="M1094 1696 c-24 -24 -34 -43 -34 -65 0 -87 65 -144 136 -121 64 21
89 93 58 162 -31 68 -105 79 -160 24z"/>
<path d="M1398 1556 c-61 -25 -131 -64 -166 -93 l-23 -18 28 -32 28 -32 104
99 c57 55 100 100 95 100 -5 0 -34 -11 -66 -24z"/>
<path d="M2131 1064 c0 -11 3 -14 6 -6 3 7 2 16 -1 19 -3 4 -6 -2 -5 -13z"/>
</g>
</svg>
